<svg width="100" height="100" viewBox="0 0 100 100" fill="none" xmlns="http://www.w3.org/2000/svg">
<path d="M84.3754 69.1939V30.8064C86.5078 30.2599 88.4578 29.1589 90.0271 27.6151C91.5964 26.0713 92.7293 24.1397 93.3107 22.0165C93.8921 19.8932 93.9013 17.654 93.3374 15.526C92.7734 13.3981 91.6564 11.4573 90.0998 9.90067C88.5432 8.34405 86.6024 7.22706 84.4744 6.66311C82.3465 6.09917 80.1072 6.10836 77.984 6.68975C75.8608 7.27114 73.9292 8.40402 72.3854 9.97336C70.8416 11.5427 69.7406 13.4926 69.1941 15.6251H30.8066C30.2601 13.4926 29.1591 11.5427 27.6153 9.97336C26.0715 8.40402 24.14 7.27114 22.0167 6.68975C19.8935 6.10836 17.6542 6.09917 15.5263 6.66311C13.3983 7.22706 11.4575 8.34405 9.90091 9.90067C8.34429 11.4573 7.2273 13.3981 6.66336 15.526C6.09941 17.654 6.1086 19.8932 6.68999 22.0165C7.27138 24.1397 8.40426 26.0713 9.97361 27.6151C11.543 29.1589 13.4929 30.2599 15.6254 30.8064V69.1939C13.4929 69.7403 11.543 70.8413 9.97361 72.3851C8.40426 73.9289 7.27138 75.8605 6.68999 77.9837C6.1086 80.107 6.09941 82.3463 6.66336 84.4742C7.2273 86.6021 8.34429 88.5429 9.90091 90.0996C11.4575 91.6562 13.3983 92.7732 15.5263 93.3371C17.6542 93.9011 19.8935 93.8919 22.0167 93.3105C24.14 92.7291 26.0715 91.5962 27.6153 90.0269C29.1591 88.4575 30.2601 86.5076 30.8066 84.3751H69.1941C69.7406 86.5076 70.8416 88.4575 72.3854 90.0269C73.9292 91.5962 75.8608 92.7291 77.984 93.3105C80.1072 93.8919 82.3465 93.9011 84.4744 93.3371C86.6024 92.7732 88.5432 91.6562 90.0998 90.0996C91.6564 88.5429 92.7734 86.6021 93.3374 84.4742C93.9013 82.3463 93.8921 80.107 93.3107 77.9837C92.7293 75.8605 91.5964 73.9289 90.0271 72.3851C88.4578 70.8413 86.5078 69.7403 84.3754 69.1939ZM81.2504 12.5001C82.4865 12.5001 83.6949 12.8667 84.7227 13.5534C85.7505 14.2402 86.5516 15.2163 87.0246 16.3583C87.4976 17.5004 87.6214 18.757 87.3803 19.9694C87.1391 21.1818 86.5438 22.2954 85.6698 23.1695C84.7957 24.0436 83.6821 24.6389 82.4697 24.88C81.2573 25.1212 80.0006 24.9974 78.8586 24.5244C77.7165 24.0513 76.7404 23.2502 76.0537 22.2224C75.3669 21.1946 75.0004 19.9862 75.0004 18.7501C75.002 17.093 75.661 15.5043 76.8328 14.3325C78.0045 13.1608 79.5933 12.5018 81.2504 12.5001ZM12.5004 18.7501C12.5004 17.514 12.8669 16.3056 13.5537 15.2778C14.2404 14.25 15.2165 13.4489 16.3586 12.9759C17.5006 12.5028 18.7573 12.379 19.9697 12.6202C21.1821 12.8614 22.2957 13.4566 23.1698 14.3307C24.0439 15.2048 24.6391 16.3184 24.8803 17.5308C25.1214 18.7432 24.9976 19.9998 24.5246 21.1419C24.0516 22.2839 23.2505 23.26 22.2227 23.9468C21.1949 24.6336 19.9865 25.0001 18.7504 25.0001C17.0933 24.9985 15.5045 24.3394 14.3328 23.1677C13.161 21.996 12.502 20.4072 12.5004 18.7501ZM18.7504 87.5001C17.5142 87.5001 16.3058 87.1336 15.278 86.4468C14.2502 85.76 13.4492 84.7839 12.9761 83.6419C12.5031 82.4998 12.3793 81.2432 12.6204 80.0308C12.8616 78.8184 13.4569 77.7048 14.3309 76.8307C15.205 75.9566 16.3187 75.3614 17.531 75.1202C18.7434 74.879 20.0001 75.0028 21.1421 75.4759C22.2842 75.9489 23.2603 76.75 23.947 77.7778C24.6338 78.8056 25.0004 80.014 25.0004 81.2501C24.9987 82.9072 24.3397 84.496 23.1679 85.6677C21.9962 86.8394 20.4074 87.4985 18.7504 87.5001ZM69.1941 78.1251H30.8066C30.2468 75.9766 29.1241 74.0163 27.5541 72.4463C25.9842 70.8764 24.0239 69.7536 21.8754 69.1939V30.8064C24.0237 30.2463 25.9839 29.1234 27.5538 27.5535C29.1237 25.9836 30.2465 24.0235 30.8066 21.8751H69.1941C69.7539 24.0236 70.8766 25.9839 72.4466 27.5539C74.0165 29.1238 75.9768 30.2466 78.1254 30.8064V69.1939C75.9767 69.7533 74.0162 70.876 72.4462 72.446C70.8762 74.016 69.7536 75.9764 69.1941 78.1251ZM81.2504 87.5001C80.0142 87.5001 78.8058 87.1336 77.778 86.4468C76.7502 85.76 75.9492 84.7839 75.4761 83.6419C75.0031 82.4998 74.8793 81.2432 75.1204 80.0308C75.3616 78.8184 75.9569 77.7048 76.8309 76.8307C77.705 75.9566 78.8187 75.3614 80.031 75.1202C81.2434 74.879 82.5001 75.0028 83.6421 75.4759C84.7842 75.9489 85.7603 76.75 86.447 77.7778C87.1338 78.8056 87.5004 80.014 87.5004 81.2501C87.4979 82.907 86.8386 84.4952 85.667 85.6668C84.4955 86.8384 82.9072 87.4976 81.2504 87.5001Z" fill="#9B9B9B"/>
</svg>
