<svg width="100" height="100" viewBox="0 0 100 100" fill="none" xmlns="http://www.w3.org/2000/svg">
<path d="M6.25 75.0011C6.25538 77.6251 6.81491 80.2183 7.89196 82.6111C8.96901 85.0038 10.5393 87.1421 12.5 88.8859V96.8761C12.5 97.7049 12.8292 98.4998 13.4153 99.0858C14.0013 99.6719 14.7962 100.001 15.625 100.001H21.875C22.7038 100.001 23.4987 99.6719 24.0847 99.0858C24.6708 98.4998 25 97.7049 25 96.8761V93.7511H75V96.8761C75 97.7049 75.3292 98.4998 75.9153 99.0858C76.5013 99.6719 77.2962 100.001 78.125 100.001H84.375C85.2038 100.001 85.9987 99.6719 86.5847 99.0858C87.1708 98.4998 87.5 97.7049 87.5 96.8761V88.8859C89.4607 87.1421 91.031 85.0038 92.108 82.6111C93.1851 80.2183 93.7446 77.6251 93.75 75.0011V65.6261H6.25V75.0011ZM96.875 50.0011H15.625V13.5265C15.6268 12.7063 15.8714 11.905 16.328 11.2237C16.7847 10.5424 17.4328 10.0116 18.1908 9.69822C18.9488 9.38484 19.7825 9.30295 20.587 9.46287C21.3914 9.6228 22.1305 10.0174 22.7109 10.5968L26.4746 14.3585C23.9102 20.1945 24.9883 25.9035 28.1582 29.9308L28.125 29.964C27.5412 30.5498 27.2134 31.3431 27.2134 32.1701C27.2134 32.9971 27.5412 33.7904 28.125 34.3761L30.334 36.5851C30.6242 36.8754 30.9687 37.1056 31.3479 37.2627C31.7271 37.4198 32.1335 37.5006 32.5439 37.5006C32.9544 37.5006 33.3608 37.4198 33.74 37.2627C34.1192 37.1056 34.4637 36.8754 34.7539 36.5851L55.334 16.005C55.6242 15.7148 55.8545 15.3703 56.0116 14.9911C56.1687 14.6119 56.2495 14.2055 56.2495 13.7951C56.2495 13.3846 56.1687 12.9782 56.0116 12.599C55.8545 12.2198 55.6242 11.8753 55.334 11.5851L53.125 9.37612C52.539 8.79051 51.7445 8.46155 50.916 8.46155C50.0876 8.46155 49.293 8.79051 48.707 9.37612L48.6738 9.40932C44.6465 6.2394 38.9414 5.16128 33.1016 7.72573L29.3398 3.96206C27.4483 2.07027 25.0382 0.781926 22.4144 0.259954C19.7906 -0.262019 17.0709 0.00583092 14.5993 1.02963C12.1277 2.05342 10.0153 3.78718 8.52908 6.01162C7.04291 8.23607 6.24978 10.8513 6.25 13.5265V50.0011H3.125C2.2962 50.0011 1.50134 50.3304 0.915291 50.9164C0.32924 51.5025 0 52.2973 0 53.1261L0 56.2511C0 57.0799 0.32924 57.8748 0.915291 58.4608C1.50134 59.0469 2.2962 59.3761 3.125 59.3761H96.875C97.7038 59.3761 98.4987 59.0469 99.0847 58.4608C99.6708 57.8748 100 57.0799 100 56.2511V53.1261C100 52.2973 99.6708 51.5025 99.0847 50.9164C98.4987 50.3304 97.7038 50.0011 96.875 50.0011Z" fill="#9B9B9B"/>
</svg>
