<svg width="100" height="100" viewBox="0 0 100 100" fill="none" xmlns="http://www.w3.org/2000/svg">
<rect width="100" height="100" fill="#F5F5F5"/>
<g id="Frame 4">
<rect width="3240" height="4156" transform="translate(-179 -1139)" fill="white"/>
<g id="ion:bed">
<path id="Vector" d="M84.375 45.0586C82.4049 44.1938 80.2765 43.7481 78.125 43.75H21.875C19.7236 43.7479 17.5953 44.1929 15.625 45.0566C12.8402 46.2744 10.4706 48.2772 8.80565 50.82C7.14073 53.3628 6.25266 56.3356 6.25 59.375V81.25C6.25 82.0788 6.57924 82.8737 7.16529 83.4597C7.75134 84.0458 8.5462 84.375 9.375 84.375C10.2038 84.375 10.9987 84.0458 11.5847 83.4597C12.1708 82.8737 12.5 82.0788 12.5 81.25V79.6875C12.5051 79.2747 12.6713 78.8802 12.9632 78.5882C13.2552 78.2963 13.6497 78.1301 14.0625 78.125H85.9375C86.3503 78.1301 86.7448 78.2963 87.0368 78.5882C87.3287 78.8802 87.4949 79.2747 87.5 79.6875V81.25C87.5 82.0788 87.8292 82.8737 88.4153 83.4597C89.0013 84.0458 89.7962 84.375 90.625 84.375C91.4538 84.375 92.2487 84.0458 92.8347 83.4597C93.4208 82.8737 93.75 82.0788 93.75 81.25V59.375C93.747 56.3359 92.8587 53.3636 91.1938 50.8211C89.5289 48.2787 87.1595 46.2763 84.375 45.0586ZM73.4375 15.625H26.5625C23.6617 15.625 20.8797 16.7773 18.8285 18.8285C16.7773 20.8797 15.625 23.6617 15.625 26.5625V40.625C15.6251 40.7461 15.6533 40.8655 15.7074 40.9737C15.7616 41.082 15.8401 41.1763 15.9369 41.249C16.0337 41.3217 16.1461 41.371 16.2651 41.3928C16.3842 41.4147 16.5067 41.4086 16.623 41.375C18.329 40.876 20.0976 40.6235 21.875 40.625H22.7012C22.894 40.6262 23.0805 40.5561 23.2247 40.4281C23.3689 40.3001 23.4607 40.1233 23.4824 39.9316C23.6529 38.4047 24.3798 36.994 25.5244 35.969C26.669 34.944 28.151 34.3766 29.6875 34.375H40.625C42.1625 34.3751 43.6459 34.9419 44.7918 35.967C45.9376 36.9922 46.6654 38.4037 46.8359 39.9316C46.8576 40.1233 46.9494 40.3001 47.0936 40.4281C47.2379 40.5561 47.4244 40.6262 47.6172 40.625H52.3945C52.5874 40.6262 52.7738 40.5561 52.9181 40.4281C53.0623 40.3001 53.1541 40.1233 53.1758 39.9316C53.3461 38.4057 54.0722 36.9958 55.2156 35.971C56.3589 34.9461 57.8396 34.378 59.375 34.375H70.3125C71.85 34.3751 73.3334 34.9419 74.4793 35.967C75.6251 36.9922 76.3529 38.4037 76.5234 39.9316C76.5451 40.1233 76.6369 40.3001 76.7811 40.4281C76.9254 40.5561 77.1119 40.6262 77.3047 40.625H78.125C79.9025 40.6241 81.6711 40.8774 83.377 41.377C83.4934 41.4106 83.6161 41.4167 83.7353 41.3947C83.8546 41.3727 83.967 41.3233 84.0639 41.2504C84.1607 41.1774 84.2392 41.0829 84.2932 40.9744C84.3472 40.8658 84.3752 40.7462 84.375 40.625V26.5625C84.375 23.6617 83.2227 20.8797 81.1715 18.8285C79.1203 16.7773 76.3383 15.625 73.4375 15.625Z" fill="#9B9B9B"/>
</g>
</g>
</svg>
