<svg width="40" height="40" viewBox="0 0 40 40" fill="none" xmlns="http://www.w3.org/2000/svg">
<g clip-path="url(#clip0_2185_419)">
<path d="M30 26.25H32.5V32.5H30V26.25ZM25 20H27.5V32.5H25V20ZM13.75 32.5C12.093 32.498 10.5044 31.8389 9.33277 30.6672C8.1611 29.4956 7.50198 27.907 7.5 26.25H10C10 26.9917 10.2199 27.7167 10.632 28.3334C11.044 28.9501 11.6297 29.4307 12.3149 29.7145C13.0002 29.9984 13.7542 30.0726 14.4816 29.9279C15.209 29.7833 15.8772 29.4261 16.4017 28.9017C16.9261 28.3772 17.2833 27.709 17.4279 26.9816C17.5726 26.2542 17.4984 25.5002 17.2145 24.8149C16.9307 24.1297 16.4501 23.544 15.8334 23.132C15.2167 22.7199 14.4917 22.5 13.75 22.5V20C15.4076 20 16.9973 20.6585 18.1694 21.8306C19.3415 23.0027 20 24.5924 20 26.25C20 27.9076 19.3415 29.4973 18.1694 30.6694C16.9973 31.8415 15.4076 32.5 13.75 32.5Z" fill="white"/>
<path d="M35 5.5H5C4.33716 5.50066 3.70166 5.76427 3.23296 6.23296C2.76427 6.70166 2.50066 7.33716 2.5 8V38C2.50066 38.6628 2.76427 39.2983 3.23296 39.767C3.70166 40.2357 4.33716 40.4993 5 40.5H35C35.6627 40.499 36.298 40.2353 36.7667 39.7667C37.2353 39.298 37.499 38.6627 37.5 38V8C37.4993 7.33716 37.2357 6.70166 36.767 6.23296C36.2983 5.76427 35.6628 5.50066 35 5.5ZM35 16.75H17.5V8H35V16.75ZM15 8V16.75H5V8H15ZM5 38V19.25H35L35.0025 38H5Z" fill="white"/>
</g>
<defs>
<clipPath id="clip0_2185_419">
<rect width="40" height="40" fill="white"/>
</clipPath>
</defs>
</svg>
