<svg width="30" height="30" viewBox="0 0 30 30" fill="none" xmlns="http://www.w3.org/2000/svg">
<path d="M3.06753 9.92434C3.41914 9.57283 3.89597 9.37537 4.39315 9.37537C4.89034 9.37537 5.36716 9.57283 5.71878 9.92434L15 19.2056L24.2813 9.92434C24.6349 9.58279 25.1085 9.3938 25.6002 9.39808C26.0918 9.40235 26.5621 9.59954 26.9097 9.94718C27.2573 10.2948 27.4545 10.7651 27.4588 11.2567C27.4631 11.7483 27.2741 12.222 26.9325 12.5756L16.3257 23.1825C15.974 23.534 15.4972 23.7314 15 23.7314C14.5028 23.7314 14.026 23.534 13.6744 23.1825L3.06753 12.5756C2.71602 12.224 2.51855 11.7471 2.51855 11.25C2.51855 10.7528 2.71602 10.276 3.06753 9.92434Z" fill="white"/>
</svg>
