<svg width="84" height="67" viewBox="0 0 84 67" fill="none" xmlns="http://www.w3.org/2000/svg">
<path d="M66.6667 25V12.5C66.6667 5.58333 61.0833 0 54.1667 0C47.25 0 41.6667 5.58333 41.6667 12.5H50C50 10.2083 51.875 8.33333 54.1667 8.33333C56.4583 8.33333 58.3333 10.2083 58.3333 12.5V25H25C29.5833 25 33.3333 21.25 33.3333 16.6667V0H8.33333V16.6667C8.33333 21.25 12.0833 25 16.6667 25H0V33.3333H8.33333V66.6667H75V33.3333H83.3333V25H66.6667ZM45.8333 58.3333H37.5V33.3333H45.8333V58.3333Z" fill="#9B9B9B"/>
</svg>
