<svg width="60" height="60" viewBox="0 0 60 60" fill="none" xmlns="http://www.w3.org/2000/svg">
<path d="M45 32.495H32.5V44.995C32.5 45.658 32.2366 46.2939 31.7678 46.7628C31.2989 47.2316 30.663 47.495 30 47.495C29.337 47.495 28.7011 47.2316 28.2322 46.7628C27.7634 46.2939 27.5 45.658 27.5 44.995V32.495H15C14.337 32.495 13.7011 32.2316 13.2322 31.7628C12.7634 31.2939 12.5 30.658 12.5 29.995C12.5 29.332 12.7634 28.6961 13.2322 28.2272C13.7011 27.7584 14.337 27.495 15 27.495H27.5V14.995C27.5 14.332 27.7634 13.6961 28.2322 13.2272C28.7011 12.7584 29.337 12.495 30 12.495C30.663 12.495 31.2989 12.7584 31.7678 13.2272C32.2366 13.6961 32.5 14.332 32.5 14.995V27.495H45C45.663 27.495 46.2989 27.7584 46.7678 28.2272C47.2366 28.6961 47.5 29.332 47.5 29.995C47.5 30.658 47.2366 31.2939 46.7678 31.7628C46.2989 32.2316 45.663 32.495 45 32.495Z" fill="white"/>
</svg>
