<svg width="40" height="40" viewBox="0 0 40 40" fill="none" xmlns="http://www.w3.org/2000/svg">
<path d="M36.5335 35.2H3.2002V31.8666H4.86686V6.86662C4.86686 6.42459 5.04246 6.00067 5.35502 5.68811C5.66758 5.37555 6.0915 5.19995 6.53353 5.19995H29.8669C30.3089 5.19995 30.7328 5.37555 31.0454 5.68811C31.3579 6.00067 31.5335 6.42459 31.5335 6.86662V15.2H34.8669V31.8666H36.5335V35.2ZM28.2002 31.8666H31.5335V18.5333H21.5335V31.8666H24.8669V21.8666H28.2002V31.8666ZM28.2002 15.2V8.53328H8.2002V31.8666H18.2002V15.2H28.2002ZM11.5335 18.5333H14.8669V21.8666H11.5335V18.5333ZM11.5335 25.2H14.8669V28.5333H11.5335V25.2ZM11.5335 11.8666H14.8669V15.2H11.5335V11.8666Z" fill="white"/>
</svg>
