<svg width="40" height="40" viewBox="0 0 40 40" fill="none" xmlns="http://www.w3.org/2000/svg">
<g clip-path="url(#clip0_2185_415)">
<path fill-rule="evenodd" clip-rule="evenodd" d="M19.9997 3.33337C29.2047 3.33337 36.6664 10.795 36.6664 20C36.6722 23.8465 35.342 27.5757 32.903 30.55L32.9364 30.5867L32.7164 30.7734C31.1534 32.6221 29.2057 34.1073 27.0092 35.1252C24.8128 36.1431 22.4205 36.6692 19.9997 36.6667C15.083 36.6667 10.6664 34.5384 7.61636 31.155L7.28303 30.7717L7.06303 30.5884L7.09636 30.5484C4.65762 27.5745 3.3274 23.846 3.33303 20C3.33303 10.795 10.7947 3.33337 19.9997 3.33337ZM19.9997 28.3334C16.8997 28.3334 14.098 29.32 12.0114 30.6767C14.3154 32.4055 17.1192 33.338 19.9997 33.3334C22.8802 33.338 25.684 32.4055 27.988 30.6767C25.6036 29.1488 22.8316 28.3357 19.9997 28.3334ZM19.9997 6.66671C17.4906 6.66664 15.0323 7.37457 12.9076 8.70912C10.7828 10.0437 9.0777 11.9507 7.98829 14.211C6.89888 16.4713 6.46937 18.9931 6.74911 21.4866C7.02885 23.9801 8.00651 26.344 9.56969 28.3067C12.2714 26.3684 15.958 25 19.9997 25C24.0414 25 27.728 26.3684 30.4297 28.3067C31.9929 26.344 32.9705 23.9801 33.2503 21.4866C33.53 18.9931 33.1005 16.4713 32.0111 14.211C30.9217 11.9507 29.2166 10.0437 27.0918 8.70912C24.967 7.37457 22.5088 6.66664 19.9997 6.66671ZM19.9997 10C21.7678 10 23.4635 10.7024 24.7137 11.9527C25.964 13.2029 26.6664 14.8986 26.6664 16.6667C26.6664 18.4348 25.964 20.1305 24.7137 21.3808C23.4635 22.631 21.7678 23.3334 19.9997 23.3334C18.2316 23.3334 16.5359 22.631 15.2856 21.3808C14.0354 20.1305 13.333 18.4348 13.333 16.6667C13.333 14.8986 14.0354 13.2029 15.2856 11.9527C16.5359 10.7024 18.2316 10 19.9997 10ZM19.9997 13.3334C19.1156 13.3334 18.2678 13.6846 17.6427 14.3097C17.0175 14.9348 16.6664 15.7827 16.6664 16.6667C16.6664 17.5508 17.0175 18.3986 17.6427 19.0237C18.2678 19.6489 19.1156 20 19.9997 20C20.8837 20 21.7316 19.6489 22.3567 19.0237C22.9818 18.3986 23.333 17.5508 23.333 16.6667C23.333 15.7827 22.9818 14.9348 22.3567 14.3097C21.7316 13.6846 20.8837 13.3334 19.9997 13.3334Z" fill="white"/>
</g>
<defs>
<clipPath id="clip0_2185_415">
<rect width="40" height="40" fill="white"/>
</clipPath>
</defs>
</svg>
