<svg width="45" height="49" viewBox="0 0 45 49" fill="none" xmlns="http://www.w3.org/2000/svg">
<path d="M44.4817 35.6109C43.1809 33.3703 41.2473 27.0305 41.2473 18.75C41.2473 13.7772 39.2718 9.00806 35.7555 5.49175C32.2392 1.97544 27.4701 0 22.4973 0C17.5245 0 12.7553 1.97544 9.23903 5.49175C5.72272 9.00806 3.74728 13.7772 3.74728 18.75C3.74728 27.0328 1.81135 33.3703 0.510565 35.6109C0.178386 36.1806 0.00228585 36.8277 2.21038e-05 37.4871C-0.00224164 38.1465 0.169412 38.7949 0.497671 39.3668C0.825931 39.9387 1.29919 40.4139 1.86972 40.7445C2.44025 41.0752 3.08787 41.2495 3.74728 41.25H13.3121C13.7447 43.3668 14.8952 45.2692 16.5688 46.6354C18.2425 48.0017 20.3368 48.7479 22.4973 48.7479C24.6578 48.7479 26.752 48.0017 28.4257 46.6354C30.0994 45.2692 31.2498 43.3668 31.6824 41.25H41.2473C41.9065 41.2491 42.5538 41.0745 43.124 40.7437C43.6942 40.4129 44.1672 39.9376 44.4951 39.3658C44.8231 38.7939 44.9946 38.1458 44.9922 37.4865C44.9898 36.8273 44.8137 36.1804 44.4817 35.6109ZM22.4973 45C21.3344 44.9996 20.2001 44.6389 19.2507 43.9673C18.3013 43.2957 17.5834 42.3464 17.1957 41.25H27.7988C27.4112 42.3464 26.6933 43.2957 25.7439 43.9673C24.7944 44.6389 23.6602 44.9996 22.4973 45ZM3.74728 37.5C5.55197 34.3969 7.49728 27.2063 7.49728 18.75C7.49728 14.7718 9.07764 10.9564 11.8907 8.1434C14.7037 5.33035 18.519 3.75 22.4973 3.75C26.4755 3.75 30.2908 5.33035 33.1039 8.1434C35.9169 10.9564 37.4973 14.7718 37.4973 18.75C37.4973 27.1992 39.4379 34.3898 41.2473 37.5H3.74728Z" fill="white"/>
</svg>
